<svg xmlns="http://www.w3.org/2000/svg" width="1920" height="1080"><path d="M100,1217L-152,1222L486,1240Z" fill="#304f79" stroke="#304f79" stroke-width="1.51"/><path d="M-53,-135L317,-131L800,-148Z" fill="#13171f" stroke="#13171f" stroke-width="1.51"/><path d="M847,1192L486,1240L1266,1249Z" fill="#3a669d" stroke="#3a669d" stroke-width="1.51"/><path d="M-53,-135L800,-148L1513,-164Z" fill="#19212f" stroke="#19212f" stroke-width="1.51"/><path d="M800,-148L1064,-139L1513,-164Z" fill="#1f2b3f" stroke="#1f2b3f" stroke-width="1.51"/><path d="M1488,1226L1266,1249L1717,1227Z" fill="#427abe" stroke="#427abe" stroke-width="1.51"/><path d="M1717,1227L1266,1249L2026,1243Z" fill="#4480c8" stroke="#4480c8" stroke-width="1.51"/><path d="M1861,1208L1717,1227L2026,1243Z" fill="#4786d2" stroke="#4786d2" stroke-width="1.51"/><path d="M1513,-164L1619,-150L2051,-159Z" fill="#273c59" stroke="#273c59" stroke-width="1.51"/><path d="M1848,-87L1958,-103L2051,-159Z" fill="#2b4467" stroke="#2b4467" stroke-width="1.51"/><path d="M1619,-150L1848,-87L2051,-159Z" fill="#294161" stroke="#294161" stroke-width="1.51"/><path d="M1950,325L2046,416L2082,270Z" fill="#365d8f" stroke="#365d8f" stroke-width="1.51"/><path d="M2039,923L1921,1061L2092,1103Z" fill="#4580c9" stroke="#4580c9" stroke-width="1.51"/><path d="M2004,1224L2026,1243L2092,1103Z" fill="#488ad8" stroke="#488ad8" stroke-width="1.51"/><path d="M1895,164L2090,234L2104,56Z" fill="#325480" stroke="#325480" stroke-width="1.51"/><path d="M1912,54L1895,164L2104,56Z" fill="#314f78" stroke="#314f78" stroke-width="1.51"/><path d="M2051,-159L1958,-103L2108,-20Z" fill="#2d486d" stroke="#2d486d" stroke-width="1.51"/><path d="M1913,32L2104,56L2108,-20Z" fill="#2f4e77" stroke="#2f4e77" stroke-width="1.51"/><path d="M2015,768L2039,923L2111,955Z" fill="#427abe" stroke="#427abe" stroke-width="1.51"/><path d="M2019,657L2015,768L2111,955Z" fill="#4075b6" stroke="#4075b6" stroke-width="1.51"/><path d="M2082,270L2046,416L2111,955Z" fill="#3c69a3" stroke="#3c69a3" stroke-width="1.51"/><path d="M2046,416L2031,531L2111,955Z" fill="#3d6da9" stroke="#3d6da9" stroke-width="1.51"/><path d="M2039,923L2092,1103L2111,955Z" fill="#4581c9" stroke="#4581c9" stroke-width="1.51"/><path d="M2031,531L2019,657L2111,955Z" fill="#3f71b0" stroke="#3f71b0" stroke-width="1.51"/><path d="M2090,234L2082,270L2111,955Z" fill="#3b679f" stroke="#3b679f" stroke-width="1.51"/><path d="M2104,56L2090,234L2111,955Z" fill="#396399" stroke="#396399" stroke-width="1.51"/><path d="M2108,-20L2104,56L2111,955Z" fill="#385f92" stroke="#385f92" stroke-width="1.51"/><path d="M1958,-103L1913,32L2108,-20Z" fill="#2e4a70" stroke="#2e4a70" stroke-width="1.51"/><path d="M2015,768L1963,887L2039,923Z" fill="#4177ba" stroke="#4177ba" stroke-width="1.51"/><path d="M1913,32L1912,54L2104,56Z" fill="#304d75" stroke="#304d75" stroke-width="1.51"/><path d="M1921,1061L2004,1224L2092,1103Z" fill="#4685d1" stroke="#4685d1" stroke-width="1.51"/><path d="M1950,325L2082,270L2090,234Z" fill="#355a8b" stroke="#355a8b" stroke-width="1.51"/><path d="M1895,164L1950,325L2090,234Z" fill="#335785" stroke="#335785" stroke-width="1.51"/><path d="M1921,1061L1876,1126L2004,1224Z" fill="#4683cd" stroke="#4683cd" stroke-width="1.51"/><path d="M2004,1224L1861,1208L2026,1243Z" fill="#4889d7" stroke="#4889d7" stroke-width="1.51"/><path d="M1923,618L2019,657L2031,531Z" fill="#3b69a3" stroke="#3b69a3" stroke-width="1.51"/><path d="M1918,554L1923,618L2031,531Z" fill="#3a669f" stroke="#3a669f" stroke-width="1.51"/><path d="M1896,977L1921,1061L2039,923Z" fill="#437cc1" stroke="#437cc1" stroke-width="1.51"/><path d="M1951,399L2031,531L2046,416Z" fill="#386297" stroke="#386297" stroke-width="1.51"/><path d="M1950,325L1951,399L2046,416Z" fill="#375d90" stroke="#375d90" stroke-width="1.51"/><path d="M1064,-139L1134,-126L1513,-164Z" fill="#212e44" stroke="#212e44" stroke-width="1.51"/><path d="M1951,399L1918,554L2031,531Z" fill="#396399" stroke="#396399" stroke-width="1.51"/><path d="M1963,887L1896,977L2039,923Z" fill="#4279be" stroke="#4279be" stroke-width="1.51"/><path d="M1910,747L2015,768L2019,657Z" fill="#3e6fad" stroke="#3e6fad" stroke-width="1.51"/><path d="M1894,703L1910,747L2019,657Z" fill="#3d6da9" stroke="#3d6da9" stroke-width="1.51"/><path d="M1883,793L1963,887L2015,768Z" fill="#3f73b3" stroke="#3f73b3" stroke-width="1.51"/><path d="M1910,747L1883,793L2015,768Z" fill="#3e70ae" stroke="#3e70ae" stroke-width="1.51"/><path d="M1923,618L1894,703L2019,657Z" fill="#3c6ba5" stroke="#3c6ba5" stroke-width="1.51"/><path d="M1876,1126L1861,1208L2004,1224Z" fill="#4686d1" stroke="#4686d1" stroke-width="1.51"/><path d="M695,1198L486,1240L847,1192Z" fill="#375f92" stroke="#375f92" stroke-width="1.51"/><path d="M1134,-126L1262,-116L1513,-164Z" fill="#223148" stroke="#223148" stroke-width="1.51"/><path d="M1873,146L1895,164L1912,54Z" fill="#304e77" stroke="#304e77" stroke-width="1.51"/><path d="M1895,164L1824,216L1950,325Z" fill="#32537f" stroke="#32537f" stroke-width="1.51"/><path d="M1824,216L1819,305L1950,325Z" fill="#335582" stroke="#335582" stroke-width="1.51"/><path d="M1842,455L1918,554L1951,399Z" fill="#376094" stroke="#376094" stroke-width="1.51"/><path d="M1848,-87L1913,32L1958,-103Z" fill="#2c466a" stroke="#2c466a" stroke-width="1.51"/><path d="M1883,793L1844,842L1963,887Z" fill="#3f72b2" stroke="#3f72b2" stroke-width="1.51"/><path d="M1844,842L1852,932L1963,887Z" fill="#4075b5" stroke="#4075b5" stroke-width="1.51"/><path d="M1852,932L1896,977L1963,887Z" fill="#4178ba" stroke="#4178ba" stroke-width="1.51"/><path d="M1619,-150L1724,-77L1848,-87Z" fill="#293e5d" stroke="#293e5d" stroke-width="1.51"/><path d="M1950,325L1819,305L1951,399Z" fill="#355989" stroke="#355989" stroke-width="1.51"/><path d="M1819,305L1842,455L1951,399Z" fill="#355b8b" stroke="#355b8b" stroke-width="1.51"/><path d="M1848,-87L1799,-27L1913,32Z" fill="#2c4669" stroke="#2c4669" stroke-width="1.51"/><path d="M1918,554L1788,590L1923,618Z" fill="#3a659c" stroke="#3a659c" stroke-width="1.51"/><path d="M1788,590L1894,703L1923,618Z" fill="#3b68a0" stroke="#3b68a0" stroke-width="1.51"/><path d="M1842,455L1779,564L1918,554Z" fill="#386195" stroke="#386195" stroke-width="1.51"/><path d="M1896,977L1876,1126L1921,1061Z" fill="#447dc4" stroke="#447dc4" stroke-width="1.51"/><path d="M1779,564L1788,590L1918,554Z" fill="#396298" stroke="#396298" stroke-width="1.51"/><path d="M1819,305L1769,410L1842,455Z" fill="#355989" stroke="#355989" stroke-width="1.51"/><path d="M1715,1107L1876,1126L1896,977Z" fill="#437cc2" stroke="#437cc2" stroke-width="1.51"/><path d="M1768,148L1873,146L1912,54Z" fill="#2f4c74" stroke="#2f4c74" stroke-width="1.51"/><path d="M1799,-27L1912,54L1913,32Z" fill="#2d496e" stroke="#2d496e" stroke-width="1.51"/><path d="M1799,-27L1768,148L1912,54Z" fill="#2d496f" stroke="#2d496f" stroke-width="1.51"/><path d="M1894,703L1883,793L1910,747Z" fill="#3d6eaa" stroke="#3d6eaa" stroke-width="1.51"/><path d="M1709,955L1715,1107L1852,932Z" fill="#4176b8" stroke="#4176b8" stroke-width="1.51"/><path d="M1738,710L1883,793L1894,703Z" fill="#3c6ba6" stroke="#3c6ba6" stroke-width="1.51"/><path d="M1788,590L1738,710L1894,703Z" fill="#3b679f" stroke="#3b679f" stroke-width="1.51"/><path d="M1873,146L1824,216L1895,164Z" fill="#31507a" stroke="#31507a" stroke-width="1.51"/><path d="M1852,932L1715,1107L1896,977Z" fill="#4278bc" stroke="#4278bc" stroke-width="1.51"/><path d="M1738,710L1844,842L1883,793Z" fill="#3d6da9" stroke="#3d6da9" stroke-width="1.51"/><path d="M1715,1107L1861,1208L1876,1126Z" fill="#4580c8" stroke="#4580c8" stroke-width="1.51"/><path d="M1708,15L1768,148L1799,-27Z" fill="#2d466a" stroke="#2d466a" stroke-width="1.51"/><path d="M1768,148L1824,216L1873,146Z" fill="#304e77" stroke="#304e77" stroke-width="1.51"/><path d="M1844,842L1719,913L1852,932Z" fill="#3f72b2" stroke="#3f72b2" stroke-width="1.51"/><path d="M1715,1107L1717,1227L1861,1208Z" fill="#4480c8" stroke="#4480c8" stroke-width="1.51"/><path d="M1719,913L1709,955L1852,932Z" fill="#3f73b3" stroke="#3f73b3" stroke-width="1.51"/><path d="M1769,410L1779,564L1842,455Z" fill="#365d8f" stroke="#365d8f" stroke-width="1.51"/><path d="M1738,710L1719,913L1844,842Z" fill="#3e6daa" stroke="#3e6daa" stroke-width="1.51"/><path d="M1724,-77L1799,-27L1848,-87Z" fill="#2a4264" stroke="#2a4264" stroke-width="1.51"/><path d="M1750,596L1738,710L1788,590Z" fill="#396399" stroke="#396399" stroke-width="1.51"/><path d="M1768,148L1758,199L1824,216Z" fill="#304e77" stroke="#304e77" stroke-width="1.51"/><path d="M1702,265L1769,410L1819,305Z" fill="#335481" stroke="#335481" stroke-width="1.51"/><path d="M1758,199L1702,265L1819,305Z" fill="#31507b" stroke="#31507b" stroke-width="1.51"/><path d="M1758,199L1819,305L1824,216Z" fill="#31517c" stroke="#31517c" stroke-width="1.51"/><path d="M1769,410L1659,533L1779,564Z" fill="#365c8e" stroke="#365c8e" stroke-width="1.51"/><path d="M1638,898L1719,913L1738,710Z" fill="#3d6ca8" stroke="#3d6ca8" stroke-width="1.51"/><path d="M1708,15L1670,63L1768,148Z" fill="#2c466b" stroke="#2c466b" stroke-width="1.51"/><path d="M1724,-77L1708,15L1799,-27Z" fill="#2a4264" stroke="#2a4264" stroke-width="1.51"/><path d="M1709,955L1658,1073L1715,1107Z" fill="#4176b9" stroke="#4176b9" stroke-width="1.51"/><path d="M1779,564L1750,596L1788,590Z" fill="#386196" stroke="#386196" stroke-width="1.51"/><path d="M1662,637L1738,710L1750,596Z" fill="#396398" stroke="#396398" stroke-width="1.51"/><path d="M1702,265L1590,410L1769,410Z" fill="#325380" stroke="#325380" stroke-width="1.51"/><path d="M1659,533L1750,596L1779,564Z" fill="#375f92" stroke="#375f92" stroke-width="1.51"/><path d="M1578,708L1638,898L1738,710Z" fill="#3b679f" stroke="#3b679f" stroke-width="1.51"/><path d="M1590,410L1659,533L1769,410Z" fill="#345886" stroke="#345886" stroke-width="1.51"/><path d="M1670,63L1758,199L1768,148Z" fill="#2e4a71" stroke="#2e4a71" stroke-width="1.51"/><path d="M1634,265L1590,410L1702,265Z" fill="#31507a" stroke="#31507a" stroke-width="1.51"/><path d="M1610,227L1702,265L1758,199Z" fill="#304d76" stroke="#304d76" stroke-width="1.51"/><path d="M1670,63L1610,227L1758,199Z" fill="#2e4a70" stroke="#2e4a70" stroke-width="1.51"/><path d="M1659,533L1662,637L1750,596Z" fill="#385f92" stroke="#385f92" stroke-width="1.51"/><path d="M1715,1107L1611,1146L1717,1227Z" fill="#437cc2" stroke="#437cc2" stroke-width="1.51"/><path d="M1629,-44L1708,15L1724,-77Z" fill="#2a4161" stroke="#2a4161" stroke-width="1.51"/><path d="M1662,637L1578,708L1738,710Z" fill="#396399" stroke="#396399" stroke-width="1.51"/><path d="M1610,227L1634,265L1702,265Z" fill="#304d76" stroke="#304d76" stroke-width="1.51"/><path d="M1619,-150L1629,-44L1724,-77Z" fill="#283d5b" stroke="#283d5b" stroke-width="1.51"/><path d="M1575,1001L1658,1073L1709,955Z" fill="#4073b3" stroke="#4073b3" stroke-width="1.51"/><path d="M1658,1073L1611,1146L1715,1107Z" fill="#4279bc" stroke="#4279bc" stroke-width="1.51"/><path d="M1611,1146L1488,1226L1717,1227Z" fill="#437cc1" stroke="#437cc1" stroke-width="1.51"/><path d="M1638,898L1709,955L1719,913Z" fill="#3f70ae" stroke="#3f70ae" stroke-width="1.51"/><path d="M1638,898L1575,1001L1709,955Z" fill="#3e70ae" stroke="#3e70ae" stroke-width="1.51"/><path d="M1629,-44L1670,63L1708,15Z" fill="#2a4264" stroke="#2a4264" stroke-width="1.51"/><path d="M1512,81L1543,212L1610,227Z" fill="#2c476b" stroke="#2c476b" stroke-width="1.51"/><path d="M1523,325L1590,410L1634,265Z" fill="#304f78" stroke="#304f78" stroke-width="1.51"/><path d="M1578,708L1506,868L1638,898Z" fill="#3b67a0" stroke="#3b67a0" stroke-width="1.51"/><path d="M1555,972L1575,1001L1638,898Z" fill="#3e6eac" stroke="#3e6eac" stroke-width="1.51"/><path d="M1590,410L1560,520L1659,533Z" fill="#345786" stroke="#345786" stroke-width="1.51"/><path d="M1659,533L1560,520L1662,637Z" fill="#365c8d" stroke="#365c8d" stroke-width="1.51"/><path d="M1629,-44L1512,81L1670,63Z" fill="#2a4162" stroke="#2a4162" stroke-width="1.51"/><path d="M1512,81L1610,227L1670,63Z" fill="#2c4569" stroke="#2c4569" stroke-width="1.51"/><path d="M1560,520L1578,708L1662,637Z" fill="#375e91" stroke="#375e91" stroke-width="1.51"/><path d="M1575,1001L1611,1146L1658,1073Z" fill="#4175b7" stroke="#4175b7" stroke-width="1.51"/><path d="M1560,520L1522,703L1578,708Z" fill="#375d90" stroke="#375d90" stroke-width="1.51"/><path d="M1619,-150L1513,-164L1629,-44Z" fill="#263956" stroke="#263956" stroke-width="1.51"/><path d="M1506,868L1555,972L1638,898Z" fill="#3c6ca7" stroke="#3c6ca7" stroke-width="1.51"/><path d="M922,1182L847,1192L1266,1249Z" fill="#3c69a3" stroke="#3c69a3" stroke-width="1.51"/><path d="M1461,806L1506,868L1578,708Z" fill="#39649a" stroke="#39649a" stroke-width="1.51"/><path d="M1575,1001L1463,1064L1611,1146Z" fill="#4073b3" stroke="#4073b3" stroke-width="1.51"/><path d="M1513,-164L1460,-41L1629,-44Z" fill="#263a56" stroke="#263a56" stroke-width="1.51"/><path d="M1460,-41L1512,81L1629,-44Z" fill="#283e5c" stroke="#283e5c" stroke-width="1.51"/><path d="M1610,227L1523,325L1634,265Z" fill="#2f4c74" stroke="#2f4c74" stroke-width="1.51"/><path d="M1520,473L1560,520L1590,410Z" fill="#335582" stroke="#335582" stroke-width="1.51"/><path d="M1543,212L1523,325L1610,227Z" fill="#2e4a71" stroke="#2e4a71" stroke-width="1.51"/><path d="M1522,703L1461,806L1578,708Z" fill="#386196" stroke="#386196" stroke-width="1.51"/><path d="M1463,1064L1488,1226L1611,1146Z" fill="#4176b8" stroke="#4176b8" stroke-width="1.51"/><path d="M1463,1064L1422,1167L1488,1226Z" fill="#4075b6" stroke="#4075b6" stroke-width="1.51"/><path d="M1262,-116L1378,-105L1513,-164Z" fill="#23334c" stroke="#23334c" stroke-width="1.51"/><path d="M1387,616L1522,703L1560,520Z" fill="#365a8a" stroke="#365a8a" stroke-width="1.51"/><path d="M1523,325L1520,473L1590,410Z" fill="#31517c" stroke="#31517c" stroke-width="1.51"/><path d="M1555,972L1463,1064L1575,1001Z" fill="#3e70ae" stroke="#3e70ae" stroke-width="1.51"/><path d="M1446,1007L1463,1064L1555,972Z" fill="#3e6eab" stroke="#3e6eab" stroke-width="1.51"/><path d="M1512,81L1417,98L1543,212Z" fill="#2b4264" stroke="#2b4264" stroke-width="1.51"/><path d="M1506,868L1446,1007L1555,972Z" fill="#3d6ba7" stroke="#3d6ba7" stroke-width="1.51"/><path d="M1520,473L1387,616L1560,520Z" fill="#345684" stroke="#345684" stroke-width="1.51"/><path d="M1405,304L1523,325L1543,212Z" fill="#2e4a70" stroke="#2e4a70" stroke-width="1.51"/><path d="M1364,500L1387,616L1520,473Z" fill="#335480" stroke="#335480" stroke-width="1.51"/><path d="M1347,388L1520,473L1523,325Z" fill="#304e78" stroke="#304e78" stroke-width="1.51"/><path d="M1405,304L1347,388L1523,325Z" fill="#2e4a71" stroke="#2e4a71" stroke-width="1.51"/><path d="M1417,98L1381,169L1543,212Z" fill="#2a4265" stroke="#2a4265" stroke-width="1.51"/><path d="M1381,169L1405,304L1543,212Z" fill="#2c4569" stroke="#2c4569" stroke-width="1.51"/><path d="M1424,836L1446,1007L1506,868Z" fill="#3b68a0" stroke="#3b68a0" stroke-width="1.51"/><path d="M1460,-41L1417,98L1512,81Z" fill="#293e5d" stroke="#293e5d" stroke-width="1.51"/><path d="M1378,-105L1460,-41L1513,-164Z" fill="#253651" stroke="#253651" stroke-width="1.51"/><path d="M1347,388L1364,500L1520,473Z" fill="#305079" stroke="#305079" stroke-width="1.51"/><path d="M1379,788L1461,806L1522,703Z" fill="#386195" stroke="#386195" stroke-width="1.51"/><path d="M1387,616L1379,788L1522,703Z" fill="#375c8e" stroke="#375c8e" stroke-width="1.51"/><path d="M1362,21L1417,98L1460,-41Z" fill="#283b59" stroke="#283b59" stroke-width="1.51"/><path d="M1461,806L1424,836L1506,868Z" fill="#3a649b" stroke="#3a649b" stroke-width="1.51"/><path d="M1424,836L1302,916L1446,1007Z" fill="#3b669e" stroke="#3b669e" stroke-width="1.51"/><path d="M1422,1167L1266,1249L1488,1226Z" fill="#4076b7" stroke="#4076b7" stroke-width="1.51"/><path d="M1446,1007L1359,1129L1463,1064Z" fill="#3e6fac" stroke="#3e6fac" stroke-width="1.51"/><path d="M1359,1129L1422,1167L1463,1064Z" fill="#3f71b1" stroke="#3f71b1" stroke-width="1.51"/><path d="M1379,788L1424,836L1461,806Z" fill="#396297" stroke="#396297" stroke-width="1.51"/><path d="M1378,-105L1362,21L1460,-41Z" fill="#253753" stroke="#253753" stroke-width="1.51"/><path d="M317,-131L508,-107L800,-148Z" fill="#161c28" stroke="#161c28" stroke-width="1.51"/><path d="M1340,357L1347,388L1405,304Z" fill="#2e496f" stroke="#2e496f" stroke-width="1.51"/><path d="M1288,944L1359,1129L1446,1007Z" fill="#3c6ba6" stroke="#3c6ba6" stroke-width="1.51"/><path d="M1302,916L1288,944L1446,1007Z" fill="#3b679f" stroke="#3b679f" stroke-width="1.51"/><path d="M1300,1141L1266,1249L1359,1129Z" fill="#3f71b0" stroke="#3f71b0" stroke-width="1.51"/><path d="M1300,598L1379,788L1387,616Z" fill="#355888" stroke="#355888" stroke-width="1.51"/><path d="M1359,1129L1266,1249L1422,1167Z" fill="#3f73b2" stroke="#3f73b2" stroke-width="1.51"/><path d="M1379,788L1302,916L1424,836Z" fill="#386297" stroke="#386297" stroke-width="1.51"/><path d="M1381,169L1245,206L1405,304Z" fill="#2b4364" stroke="#2b4364" stroke-width="1.51"/><path d="M1362,21L1323,96L1417,98Z" fill="#273c5a" stroke="#273c5a" stroke-width="1.51"/><path d="M1323,96L1381,169L1417,98Z" fill="#293f5e" stroke="#293f5e" stroke-width="1.51"/><path d="M1218,1071L1300,1141L1359,1129Z" fill="#3d6ea9" stroke="#3d6ea9" stroke-width="1.51"/><path d="M1288,944L1218,1071L1359,1129Z" fill="#3c6aa4" stroke="#3c6aa4" stroke-width="1.51"/><path d="M1281,-37L1362,21L1378,-105Z" fill="#243651" stroke="#243651" stroke-width="1.51"/><path d="M1267,814L1302,916L1379,788Z" fill="#386094" stroke="#386094" stroke-width="1.51"/><path d="M1300,598L1267,814L1379,788Z" fill="#365a8b" stroke="#365a8b" stroke-width="1.51"/><path d="M1364,500L1317,510L1387,616Z" fill="#32527e" stroke="#32527e" stroke-width="1.51"/><path d="M1317,510L1300,598L1387,616Z" fill="#33537f" stroke="#33537f" stroke-width="1.51"/><path d="M1245,206L1340,357L1405,304Z" fill="#2c4569" stroke="#2c4569" stroke-width="1.51"/><path d="M1200,775L1267,814L1300,598Z" fill="#355887" stroke="#355887" stroke-width="1.51"/><path d="M1347,388L1317,510L1364,500Z" fill="#304e77" stroke="#304e77" stroke-width="1.51"/><path d="M1106,1169L922,1182L1266,1249Z" fill="#3c6ca7" stroke="#3c6ca7" stroke-width="1.51"/><path d="M1323,96L1245,206L1381,169Z" fill="#293e5e" stroke="#293e5e" stroke-width="1.51"/><path d="M1262,-116L1281,-37L1378,-105Z" fill="#23334b" stroke="#23334b" stroke-width="1.51"/><path d="M1239,407L1317,510L1347,388Z" fill="#2f4b73" stroke="#2f4b73" stroke-width="1.51"/><path d="M1281,-37L1323,96L1362,21Z" fill="#263854" stroke="#263854" stroke-width="1.51"/><path d="M1239,407L1230,478L1317,510Z" fill="#2f4c73" stroke="#2f4c73" stroke-width="1.51"/><path d="M1245,206L1184,374L1340,357Z" fill="#2b4467" stroke="#2b4467" stroke-width="1.51"/><path d="M1184,374L1239,407L1340,357Z" fill="#2d476c" stroke="#2d476c" stroke-width="1.51"/><path d="M1340,357L1239,407L1347,388Z" fill="#2e4a6f" stroke="#2e4a6f" stroke-width="1.51"/><path d="M1127,680L1200,775L1300,598Z" fill="#335482" stroke="#335482" stroke-width="1.51"/><path d="M1197,547L1300,598L1317,510Z" fill="#31507a" stroke="#31507a" stroke-width="1.51"/><path d="M1281,-37L1185,111L1323,96Z" fill="#263954" stroke="#263954" stroke-width="1.51"/><path d="M1185,111L1245,206L1323,96Z" fill="#273c5a" stroke="#273c5a" stroke-width="1.51"/><path d="M1165,-22L1185,111L1281,-37Z" fill="#24354f" stroke="#24354f" stroke-width="1.51"/><path d="M1190,1169L1266,1249L1300,1141Z" fill="#3e70ae" stroke="#3e70ae" stroke-width="1.51"/><path d="M1230,478L1197,547L1317,510Z" fill="#304e76" stroke="#304e76" stroke-width="1.51"/><path d="M800,-148L957,-119L1064,-139Z" fill="#1c2738" stroke="#1c2738" stroke-width="1.51"/><path d="M1172,959L1218,1071L1288,944Z" fill="#3a659c" stroke="#3a659c" stroke-width="1.51"/><path d="M1197,547L1123,635L1300,598Z" fill="#31507b" stroke="#31507b" stroke-width="1.51"/><path d="M1123,635L1127,680L1300,598Z" fill="#32527d" stroke="#32527d" stroke-width="1.51"/><path d="M1194,837L1288,944L1302,916Z" fill="#396196" stroke="#396196" stroke-width="1.51"/><path d="M1267,814L1194,837L1302,916Z" fill="#375f92" stroke="#375f92" stroke-width="1.51"/><path d="M1218,1071L1190,1169L1300,1141Z" fill="#3d6ca8" stroke="#3d6ca8" stroke-width="1.51"/><path d="M1115,304L1184,374L1245,206Z" fill="#2a4162" stroke="#2a4162" stroke-width="1.51"/><path d="M1194,837L1172,959L1288,944Z" fill="#386195" stroke="#386195" stroke-width="1.51"/><path d="M1262,-116L1165,-22L1281,-37Z" fill="#23324a" stroke="#23324a" stroke-width="1.51"/><path d="M1134,-126L1165,-22L1262,-116Z" fill="#213046" stroke="#213046" stroke-width="1.51"/><path d="M1190,1169L1106,1169L1266,1249Z" fill="#3e6eab" stroke="#3e6eab" stroke-width="1.51"/><path d="M1200,775L1194,837L1267,814Z" fill="#365b8c" stroke="#365b8c" stroke-width="1.51"/><path d="M1123,431L1230,478L1239,407Z" fill="#2e496e" stroke="#2e496e" stroke-width="1.51"/><path d="M1184,374L1123,431L1239,407Z" fill="#2c466b" stroke="#2c466b" stroke-width="1.51"/><path d="M1142,165L1115,304L1245,206Z" fill="#283d5c" stroke="#283d5c" stroke-width="1.51"/><path d="M1185,111L1142,165L1245,206Z" fill="#273b59" stroke="#273b59" stroke-width="1.51"/><path d="M1115,878L1172,959L1194,837Z" fill="#375d90" stroke="#375d90" stroke-width="1.51"/><path d="M1113,1074L1190,1169L1218,1071Z" fill="#3b69a3" stroke="#3b69a3" stroke-width="1.51"/><path d="M1172,959L1113,1074L1218,1071Z" fill="#3a659c" stroke="#3a659c" stroke-width="1.51"/><path d="M1123,431L1197,547L1230,478Z" fill="#2e4a71" stroke="#2e4a71" stroke-width="1.51"/><path d="M1123,431L1111,549L1197,547Z" fill="#2e4a71" stroke="#2e4a71" stroke-width="1.51"/><path d="M1066,256L1115,304L1142,165Z" fill="#273d5b" stroke="#273d5b" stroke-width="1.51"/><path d="M1165,-22L1039,105L1185,111Z" fill="#24354f" stroke="#24354f" stroke-width="1.51"/><path d="M1113,1074L1106,1169L1190,1169Z" fill="#3b69a4" stroke="#3b69a4" stroke-width="1.51"/><path d="M1111,549L1123,635L1197,547Z" fill="#304d76" stroke="#304d76" stroke-width="1.51"/><path d="M1127,680L1022,797L1200,775Z" fill="#345583" stroke="#345583" stroke-width="1.51"/><path d="M1115,878L1194,837L1200,775Z" fill="#365b8c" stroke="#365b8c" stroke-width="1.51"/><path d="M1022,797L1115,878L1200,775Z" fill="#355888" stroke="#355888" stroke-width="1.51"/><path d="M1115,878L1086,935L1172,959Z" fill="#375e91" stroke="#375e91" stroke-width="1.51"/><path d="M1086,935L1113,1074L1172,959Z" fill="#396296" stroke="#396296" stroke-width="1.51"/><path d="M1039,105L1142,165L1185,111Z" fill="#253852" stroke="#253852" stroke-width="1.51"/><path d="M1115,304L1123,431L1184,374Z" fill="#2b4366" stroke="#2b4366" stroke-width="1.51"/><path d="M1134,-126L1042,-43L1165,-22Z" fill="#212f44" stroke="#212f44" stroke-width="1.51"/><path d="M1042,-43L1039,105L1165,-22Z" fill="#223148" stroke="#223148" stroke-width="1.51"/><path d="M1086,935L1014,968L1113,1074Z" fill="#386094" stroke="#386094" stroke-width="1.51"/><path d="M981,504L1111,549L1123,431Z" fill="#2d476c" stroke="#2d476c" stroke-width="1.51"/><path d="M1064,-139L1042,-43L1134,-126Z" fill="#1f2c40" stroke="#1f2c40" stroke-width="1.51"/><path d="M1039,105L1066,256L1142,165Z" fill="#263954" stroke="#263954" stroke-width="1.51"/><path d="M1115,304L947,449L1123,431Z" fill="#2b4264" stroke="#2b4264" stroke-width="1.51"/><path d="M1066,256L947,449L1115,304Z" fill="#293f5f" stroke="#293f5f" stroke-width="1.51"/><path d="M1111,549L921,621L1123,635Z" fill="#2f4c73" stroke="#2f4c73" stroke-width="1.51"/><path d="M925,750L1022,797L1127,680Z" fill="#32527e" stroke="#32527e" stroke-width="1.51"/><path d="M921,621L925,750L1127,680Z" fill="#304e77" stroke="#304e77" stroke-width="1.51"/><path d="M1123,635L921,621L1127,680Z" fill="#304e77" stroke="#304e77" stroke-width="1.51"/><path d="M969,250L947,449L1066,256Z" fill="#283d5b" stroke="#283d5b" stroke-width="1.51"/><path d="M981,504L921,621L1111,549Z" fill="#2d486e" stroke="#2d486e" stroke-width="1.51"/><path d="M951,1116L1106,1169L1113,1074Z" fill="#3a669e" stroke="#3a669e" stroke-width="1.51"/><path d="M947,449L981,504L1123,431Z" fill="#2c4467" stroke="#2c4467" stroke-width="1.51"/><path d="M1022,797L1086,935L1115,878Z" fill="#365a8b" stroke="#365a8b" stroke-width="1.51"/><path d="M1014,968L951,1116L1113,1074Z" fill="#386197" stroke="#386197" stroke-width="1.51"/><path d="M951,1116L922,1182L1106,1169Z" fill="#3a669e" stroke="#3a669e" stroke-width="1.51"/><path d="M913,282L947,449L969,250Z" fill="#283b59" stroke="#283b59" stroke-width="1.51"/><path d="M942,840L1014,968L1022,797Z" fill="#345786" stroke="#345786" stroke-width="1.51"/><path d="M999,-37L1039,105L1042,-43Z" fill="#212f46" stroke="#212f46" stroke-width="1.51"/><path d="M1039,105L969,250L1066,256Z" fill="#263854" stroke="#263854" stroke-width="1.51"/><path d="M1022,797L1014,968L1086,935Z" fill="#365a8b" stroke="#365a8b" stroke-width="1.51"/><path d="M508,-107L642,-103L800,-148Z" fill="#181f2c" stroke="#181f2c" stroke-width="1.51"/><path d="M907,151L969,250L1039,105Z" fill="#24354f" stroke="#24354f" stroke-width="1.51"/><path d="M957,-119L999,-37L1042,-43Z" fill="#1f2c3f" stroke="#1f2c3f" stroke-width="1.51"/><path d="M957,-119L1042,-43L1064,-139Z" fill="#1e2a3d" stroke="#1e2a3d" stroke-width="1.51"/><path d="M898,1047L951,1116L1014,968Z" fill="#375f92" stroke="#375f92" stroke-width="1.51"/><path d="M999,-37L895,53L1039,105Z" fill="#212f46" stroke="#212f46" stroke-width="1.51"/><path d="M895,53L907,151L1039,105Z" fill="#223249" stroke="#223249" stroke-width="1.51"/><path d="M925,750L942,840L1022,797Z" fill="#32537f" stroke="#32537f" stroke-width="1.51"/><path d="M323,1206L100,1217L486,1240Z" fill="#325380" stroke="#325380" stroke-width="1.51"/><path d="M889,573L921,621L981,504Z" fill="#2d476b" stroke="#2d476b" stroke-width="1.51"/><path d="M942,840L840,955L1014,968Z" fill="#355887" stroke="#355887" stroke-width="1.51"/><path d="M840,955L898,1047L1014,968Z" fill="#365b8c" stroke="#365b8c" stroke-width="1.51"/><path d="M957,-119L895,53L999,-37Z" fill="#1f2c3f" stroke="#1f2c3f" stroke-width="1.51"/><path d="M913,282L831,447L947,449Z" fill="#293d5c" stroke="#293d5c" stroke-width="1.51"/><path d="M834,31L895,53L957,-119Z" fill="#1f2b3e" stroke="#1f2b3e" stroke-width="1.51"/><path d="M907,151L881,190L969,250Z" fill="#24354f" stroke="#24354f" stroke-width="1.51"/><path d="M947,449L889,573L981,504Z" fill="#2c4467" stroke="#2c4467" stroke-width="1.51"/><path d="M817,889L840,955L942,840Z" fill="#335582" stroke="#335582" stroke-width="1.51"/><path d="M800,-148L834,31L957,-119Z" fill="#1c2738" stroke="#1c2738" stroke-width="1.51"/><path d="M881,190L913,282L969,250Z" fill="#253752" stroke="#253752" stroke-width="1.51"/><path d="M805,297L831,447L913,282Z" fill="#263a56" stroke="#263a56" stroke-width="1.51"/><path d="M925,750L853,775L942,840Z" fill="#31517b" stroke="#31517b" stroke-width="1.51"/><path d="M831,447L889,573L947,449Z" fill="#2a4163" stroke="#2a4163" stroke-width="1.51"/><path d="M800,-148L756,-59L834,31Z" fill="#1c2637" stroke="#1c2637" stroke-width="1.51"/><path d="M921,621L791,715L925,750Z" fill="#2f4b73" stroke="#2f4b73" stroke-width="1.51"/><path d="M847,1192L922,1182L951,1116Z" fill="#39639a" stroke="#39639a" stroke-width="1.51"/><path d="M898,1047L847,1192L951,1116Z" fill="#386196" stroke="#386196" stroke-width="1.51"/><path d="M794,647L791,715L921,621Z" fill="#2e486e" stroke="#2e486e" stroke-width="1.51"/><path d="M791,715L853,775L925,750Z" fill="#2f4d76" stroke="#2f4d76" stroke-width="1.51"/><path d="M853,775L817,889L942,840Z" fill="#32527d" stroke="#32527d" stroke-width="1.51"/><path d="M829,597L794,647L921,621Z" fill="#2d476b" stroke="#2d476b" stroke-width="1.51"/><path d="M758,1065L847,1192L898,1047Z" fill="#375e91" stroke="#375e91" stroke-width="1.51"/><path d="M889,573L829,597L921,621Z" fill="#2d476b" stroke="#2d476b" stroke-width="1.51"/><path d="M834,31L775,178L907,151Z" fill="#212f45" stroke="#212f45" stroke-width="1.51"/><path d="M895,53L834,31L907,151Z" fill="#202e44" stroke="#202e44" stroke-width="1.51"/><path d="M881,190L805,297L913,282Z" fill="#253651" stroke="#253651" stroke-width="1.51"/><path d="M831,447L829,597L889,573Z" fill="#2b4365" stroke="#2b4365" stroke-width="1.51"/><path d="M775,178L881,190L907,151Z" fill="#22324a" stroke="#22324a" stroke-width="1.51"/><path d="M630,1192L486,1240L695,1198Z" fill="#365d8e" stroke="#365d8e" stroke-width="1.51"/><path d="M760,488L829,597L831,447Z" fill="#2a4061" stroke="#2a4061" stroke-width="1.51"/><path d="M750,73L775,178L834,31Z" fill="#202d41" stroke="#202d41" stroke-width="1.51"/><path d="M840,955L758,1065L898,1047Z" fill="#355a8a" stroke="#355a8a" stroke-width="1.51"/><path d="M775,178L805,297L881,190Z" fill="#23334c" stroke="#23334c" stroke-width="1.51"/><path d="M775,178L770,285L805,297Z" fill="#23344d" stroke="#23344d" stroke-width="1.51"/><path d="M805,297L695,391L831,447Z" fill="#263955" stroke="#263955" stroke-width="1.51"/><path d="M778,933L758,1065L840,955Z" fill="#345786" stroke="#345786" stroke-width="1.51"/><path d="M758,1065L695,1198L847,1192Z" fill="#375f92" stroke="#375f92" stroke-width="1.51"/><path d="M710,877L817,889L853,775Z" fill="#31507b" stroke="#31507b" stroke-width="1.51"/><path d="M791,715L710,877L853,775Z" fill="#2f4d75" stroke="#2f4d75" stroke-width="1.51"/><path d="M817,889L778,933L840,955Z" fill="#335581" stroke="#335581" stroke-width="1.51"/><path d="M744,-76L756,-59L800,-148Z" fill="#1b2433" stroke="#1b2433" stroke-width="1.51"/><path d="M770,285L695,391L805,297Z" fill="#243650" stroke="#243650" stroke-width="1.51"/><path d="M695,391L760,488L831,447Z" fill="#283c59" stroke="#283c59" stroke-width="1.51"/><path d="M756,-59L750,73L834,31Z" fill="#1d293b" stroke="#1d293b" stroke-width="1.51"/><path d="M674,535L794,647L829,597Z" fill="#2b4365" stroke="#2b4365" stroke-width="1.51"/><path d="M760,488L674,535L829,597Z" fill="#2a4060" stroke="#2a4060" stroke-width="1.51"/><path d="M674,535L669,611L794,647Z" fill="#2a4263" stroke="#2a4263" stroke-width="1.51"/><path d="M710,877L778,933L817,889Z" fill="#32527d" stroke="#32527d" stroke-width="1.51"/><path d="M663,1130L695,1198L758,1065Z" fill="#365c8d" stroke="#365c8d" stroke-width="1.51"/><path d="M671,939L758,1065L778,933Z" fill="#335582" stroke="#335582" stroke-width="1.51"/><path d="M620,777L710,877L791,715Z" fill="#2e4b72" stroke="#2e4b72" stroke-width="1.51"/><path d="M672,-20L750,73L756,-59Z" fill="#1c2737" stroke="#1c2737" stroke-width="1.51"/><path d="M642,-103L744,-76L800,-148Z" fill="#1a2231" stroke="#1a2231" stroke-width="1.51"/><path d="M669,611L791,715L794,647Z" fill="#2d466a" stroke="#2d466a" stroke-width="1.51"/><path d="M622,251L770,285L775,178Z" fill="#223149" stroke="#223149" stroke-width="1.51"/><path d="M669,611L620,777L791,715Z" fill="#2c466a" stroke="#2c466a" stroke-width="1.51"/><path d="M657,149L622,251L775,178Z" fill="#212e44" stroke="#212e44" stroke-width="1.51"/><path d="M750,73L657,149L775,178Z" fill="#202d42" stroke="#202d42" stroke-width="1.51"/><path d="M710,877L671,939L778,933Z" fill="#32517c" stroke="#32517c" stroke-width="1.51"/><path d="M622,251L695,391L770,285Z" fill="#24344d" stroke="#24344d" stroke-width="1.51"/><path d="M620,777L659,872L710,877Z" fill="#2f4c74" stroke="#2f4c74" stroke-width="1.51"/><path d="M671,939L663,1130L758,1065Z" fill="#345786" stroke="#345786" stroke-width="1.51"/><path d="M695,391L674,535L760,488Z" fill="#273c59" stroke="#273c59" stroke-width="1.51"/><path d="M744,-76L672,-20L756,-59Z" fill="#1b2434" stroke="#1b2434" stroke-width="1.51"/><path d="M672,-20L657,149L750,73Z" fill="#1e293b" stroke="#1e293b" stroke-width="1.51"/><path d="M642,-103L672,-20L744,-76Z" fill="#1a2332" stroke="#1a2332" stroke-width="1.51"/><path d="M521,1090L663,1130L671,939Z" fill="#335583" stroke="#335583" stroke-width="1.51"/><path d="M622,251L575,329L695,391Z" fill="#22324b" stroke="#22324b" stroke-width="1.51"/><path d="M589,458L674,535L695,391Z" fill="#273956" stroke="#273956" stroke-width="1.51"/><path d="M659,872L671,939L710,877Z" fill="#304f79" stroke="#304f79" stroke-width="1.51"/><path d="M498,-8L509,144L657,149Z" fill="#1c2637" stroke="#1c2637" stroke-width="1.51"/><path d="M533,628L620,777L669,611Z" fill="#2a4264" stroke="#2a4264" stroke-width="1.51"/><path d="M539,933L521,1090L671,939Z" fill="#31507b" stroke="#31507b" stroke-width="1.51"/><path d="M498,-8L657,149L672,-20Z" fill="#1b2536" stroke="#1b2536" stroke-width="1.51"/><path d="M663,1130L630,1192L695,1198Z" fill="#365c8f" stroke="#365c8f" stroke-width="1.51"/><path d="M575,329L589,458L695,391Z" fill="#25354f" stroke="#25354f" stroke-width="1.51"/><path d="M659,872L539,933L671,939Z" fill="#304f77" stroke="#304f77" stroke-width="1.51"/><path d="M589,458L516,501L674,535Z" fill="#263956" stroke="#263956" stroke-width="1.51"/><path d="M533,628L669,611L674,535Z" fill="#293f5e" stroke="#293f5e" stroke-width="1.51"/><path d="M516,501L533,628L674,535Z" fill="#273c5a" stroke="#273c5a" stroke-width="1.51"/><path d="M642,-103L498,-8L672,-20Z" fill="#19222f" stroke="#19222f" stroke-width="1.51"/><path d="M575,329L538,370L589,458Z" fill="#23344c" stroke="#23344c" stroke-width="1.51"/><path d="M519,226L622,251L657,149Z" fill="#202c41" stroke="#202c41" stroke-width="1.51"/><path d="M521,1090L630,1192L663,1130Z" fill="#345988" stroke="#345988" stroke-width="1.51"/><path d="M508,-107L498,-8L642,-103Z" fill="#181f2b" stroke="#181f2b" stroke-width="1.51"/><path d="M509,144L519,226L657,149Z" fill="#1e2a3d" stroke="#1e2a3d" stroke-width="1.51"/><path d="M620,777L539,933L659,872Z" fill="#2e4b73" stroke="#2e4b73" stroke-width="1.51"/><path d="M222,1196L100,1217L323,1206Z" fill="#31517b" stroke="#31517b" stroke-width="1.51"/><path d="M473,896L539,933L620,777Z" fill="#2e4a70" stroke="#2e4a70" stroke-width="1.51"/><path d="M-53,-135L41,-107L317,-131Z" fill="#0e1117" stroke="#0e1117" stroke-width="1.51"/><path d="M533,628L470,769L620,777Z" fill="#2a4265" stroke="#2a4265" stroke-width="1.51"/><path d="M470,769L473,896L620,777Z" fill="#2c466b" stroke="#2c466b" stroke-width="1.51"/><path d="M521,1090L486,1240L630,1192Z" fill="#345988" stroke="#345988" stroke-width="1.51"/><path d="M519,226L575,329L622,251Z" fill="#212e44" stroke="#212e44" stroke-width="1.51"/><path d="M498,-8L459,37L509,144Z" fill="#1a2332" stroke="#1a2332" stroke-width="1.51"/><path d="M317,-131L361,-102L508,-107Z" fill="#141923" stroke="#141923" stroke-width="1.51"/><path d="M533,456L516,501L589,458Z" fill="#253752" stroke="#253752" stroke-width="1.51"/><path d="M538,370L533,456L589,458Z" fill="#24354f" stroke="#24354f" stroke-width="1.51"/><path d="M41,-107L137,-95L317,-131Z" fill="#10131a" stroke="#10131a" stroke-width="1.51"/><path d="M421,1068L521,1090L539,933Z" fill="#31507b" stroke="#31507b" stroke-width="1.51"/><path d="M519,226L538,370L575,329Z" fill="#212f46" stroke="#212f46" stroke-width="1.51"/><path d="M421,1068L363,1188L486,1240Z" fill="#335581" stroke="#335581" stroke-width="1.51"/><path d="M421,1068L486,1240L521,1090Z" fill="#325581" stroke="#325581" stroke-width="1.51"/><path d="M422,627L470,769L533,628Z" fill="#283e5e" stroke="#283e5e" stroke-width="1.51"/><path d="M516,501L425,549L533,628Z" fill="#263955" stroke="#263955" stroke-width="1.51"/><path d="M425,549L422,627L533,628Z" fill="#273b58" stroke="#273b58" stroke-width="1.51"/><path d="M398,440L533,456L538,370Z" fill="#23334b" stroke="#23334b" stroke-width="1.51"/><path d="M417,347L398,440L538,370Z" fill="#223047" stroke="#223047" stroke-width="1.51"/><path d="M519,226L417,347L538,370Z" fill="#212e44" stroke="#212e44" stroke-width="1.51"/><path d="M473,896L407,960L539,933Z" fill="#2e4a72" stroke="#2e4a72" stroke-width="1.51"/><path d="M407,960L421,1068L539,933Z" fill="#2f4c75" stroke="#2f4c75" stroke-width="1.51"/><path d="M470,769L415,854L473,896Z" fill="#2c456a" stroke="#2c456a" stroke-width="1.51"/><path d="M398,440L516,501L533,456Z" fill="#24354f" stroke="#24354f" stroke-width="1.51"/><path d="M459,37L395,74L509,144Z" fill="#1b2332" stroke="#1b2332" stroke-width="1.51"/><path d="M509,144L379,173L519,226Z" fill="#1c2739" stroke="#1c2739" stroke-width="1.51"/><path d="M379,173L417,347L519,226Z" fill="#1e293d" stroke="#1e293d" stroke-width="1.51"/><path d="M361,-102L498,-8L508,-107Z" fill="#161c27" stroke="#161c27" stroke-width="1.51"/><path d="M398,440L425,549L516,501Z" fill="#24354f" stroke="#24354f" stroke-width="1.51"/><path d="M361,-102L348,-21L498,-8Z" fill="#161d27" stroke="#161d27" stroke-width="1.51"/><path d="M395,74L379,173L509,144Z" fill="#1b2434" stroke="#1b2434" stroke-width="1.51"/><path d="M422,627L380,763L470,769Z" fill="#293f5f" stroke="#293f5f" stroke-width="1.51"/><path d="M363,1188L323,1206L486,1240Z" fill="#335684" stroke="#335684" stroke-width="1.51"/><path d="M348,-21L459,37L498,-8Z" fill="#181f2c" stroke="#181f2c" stroke-width="1.51"/><path d="M379,173L309,241L417,347Z" fill="#1d283a" stroke="#1d283a" stroke-width="1.51"/><path d="M380,763L415,854L470,769Z" fill="#2b4364" stroke="#2b4364" stroke-width="1.51"/><path d="M415,854L407,960L473,896Z" fill="#2d486d" stroke="#2d486d" stroke-width="1.51"/><path d="M321,666L380,763L422,627Z" fill="#273c5a" stroke="#273c5a" stroke-width="1.51"/><path d="M348,-21L395,74L459,37Z" fill="#181f2c" stroke="#181f2c" stroke-width="1.51"/><path d="M332,110L379,173L395,74Z" fill="#1a2231" stroke="#1a2231" stroke-width="1.51"/><path d="M353,890L407,960L415,854Z" fill="#2d476b" stroke="#2d476b" stroke-width="1.51"/><path d="M268,1077L363,1188L421,1068Z" fill="#31507a" stroke="#31507a" stroke-width="1.51"/><path d="M407,960L287,985L421,1068Z" fill="#2e4b72" stroke="#2e4b72" stroke-width="1.51"/><path d="M398,440L305,484L425,549Z" fill="#23334b" stroke="#23334b" stroke-width="1.51"/><path d="M305,484L315,558L425,549Z" fill="#24344d" stroke="#24344d" stroke-width="1.51"/><path d="M315,558L422,627L425,549Z" fill="#253852" stroke="#253852" stroke-width="1.51"/><path d="M380,763L353,890L415,854Z" fill="#2b4366" stroke="#2b4366" stroke-width="1.51"/><path d="M309,241L265,288L417,347Z" fill="#1e293b" stroke="#1e293b" stroke-width="1.51"/><path d="M287,985L268,1077L421,1068Z" fill="#2f4b73" stroke="#2f4b73" stroke-width="1.51"/><path d="M315,558L321,666L422,627Z" fill="#263854" stroke="#263854" stroke-width="1.51"/><path d="M238,333L398,440L417,347Z" fill="#202d42" stroke="#202d42" stroke-width="1.51"/><path d="M265,288L238,333L417,347Z" fill="#1e293c" stroke="#1e293c" stroke-width="1.51"/><path d="M273,780L353,890L380,763Z" fill="#2a4162" stroke="#2a4162" stroke-width="1.51"/><path d="M238,333L305,484L398,440Z" fill="#202e44" stroke="#202e44" stroke-width="1.51"/><path d="M353,890L287,985L407,960Z" fill="#2d486c" stroke="#2d486c" stroke-width="1.51"/><path d="M348,-21L332,110L395,74Z" fill="#181f2c" stroke="#181f2c" stroke-width="1.51"/><path d="M268,1077L323,1206L363,1188Z" fill="#32517c" stroke="#32517c" stroke-width="1.51"/><path d="M321,666L273,780L380,763Z" fill="#283d5c" stroke="#283d5c" stroke-width="1.51"/><path d="M332,110L309,241L379,173Z" fill="#1b2433" stroke="#1b2433" stroke-width="1.51"/><path d="M317,-131L348,-21L361,-102Z" fill="#141922" stroke="#141922" stroke-width="1.51"/><path d="M158,96L332,110L348,-21Z" fill="#171d29" stroke="#171d29" stroke-width="1.51"/><path d="M143,-3L158,96L348,-21Z" fill="#151a24" stroke="#151a24" stroke-width="1.51"/><path d="M193,165L309,241L332,110Z" fill="#1a2230" stroke="#1a2230" stroke-width="1.51"/><path d="M167,889L287,985L353,890Z" fill="#2b4467" stroke="#2b4467" stroke-width="1.51"/><path d="M273,780L167,889L353,890Z" fill="#2a4062" stroke="#2a4062" stroke-width="1.51"/><path d="M268,1077L222,1196L323,1206Z" fill="#315079" stroke="#315079" stroke-width="1.51"/><path d="M317,-131L143,-3L348,-21Z" fill="#141821" stroke="#141821" stroke-width="1.51"/><path d="M137,-95L143,-3L317,-131Z" fill="#12161d" stroke="#12161d" stroke-width="1.51"/><path d="M229,756L273,780L321,666Z" fill="#273b59" stroke="#273b59" stroke-width="1.51"/><path d="M315,558L201,691L321,666Z" fill="#253752" stroke="#253752" stroke-width="1.51"/><path d="M158,96L193,165L332,110Z" fill="#181e2b" stroke="#181e2b" stroke-width="1.51"/><path d="M238,333L138,431L305,484Z" fill="#1f2c40" stroke="#1f2c40" stroke-width="1.51"/><path d="M143,545L201,691L315,558Z" fill="#23344c" stroke="#23344c" stroke-width="1.51"/><path d="M201,691L229,756L321,666Z" fill="#263955" stroke="#263955" stroke-width="1.51"/><path d="M200,1110L222,1196L268,1077Z" fill="#304d75" stroke="#304d75" stroke-width="1.51"/><path d="M305,484L143,545L315,558Z" fill="#223149" stroke="#223149" stroke-width="1.51"/><path d="M167,889L165,962L287,985Z" fill="#2b4366" stroke="#2b4366" stroke-width="1.51"/><path d="M193,165L265,288L309,241Z" fill="#1b2434" stroke="#1b2434" stroke-width="1.51"/><path d="M131,471L143,545L305,484Z" fill="#212e44" stroke="#212e44" stroke-width="1.51"/><path d="M138,431L131,471L305,484Z" fill="#202c41" stroke="#202c41" stroke-width="1.51"/><path d="M229,756L167,889L273,780Z" fill="#283d5c" stroke="#283d5c" stroke-width="1.51"/><path d="M165,962L268,1077L287,985Z" fill="#2d486c" stroke="#2d486c" stroke-width="1.51"/><path d="M193,165L108,231L265,288Z" fill="#1a2231" stroke="#1a2231" stroke-width="1.51"/><path d="M165,962L200,1110L268,1077Z" fill="#2d486e" stroke="#2d486e" stroke-width="1.51"/><path d="M108,231L238,333L265,288Z" fill="#1c2535" stroke="#1c2535" stroke-width="1.51"/><path d="M90,841L167,889L229,756Z" fill="#283d5b" stroke="#283d5b" stroke-width="1.51"/><path d="M51,319L138,431L238,333Z" fill="#1c2738" stroke="#1c2738" stroke-width="1.51"/><path d="M108,231L51,319L238,333Z" fill="#1b2333" stroke="#1b2333" stroke-width="1.51"/><path d="M201,691L71,742L229,756Z" fill="#263854" stroke="#263854" stroke-width="1.51"/><path d="M71,742L90,841L229,756Z" fill="#263956" stroke="#263956" stroke-width="1.51"/><path d="M165,962L54,1075L200,1110Z" fill="#2c476b" stroke="#2c476b" stroke-width="1.51"/><path d="M200,1110L100,1217L222,1196Z" fill="#304d76" stroke="#304d76" stroke-width="1.51"/><path d="M143,-3L119,20L158,96Z" fill="#141922" stroke="#141922" stroke-width="1.51"/><path d="M54,1075L100,1217L200,1110Z" fill="#2e4a70" stroke="#2e4a70" stroke-width="1.51"/><path d="M143,545L32,627L201,691Z" fill="#22324a" stroke="#22324a" stroke-width="1.51"/><path d="M32,627L71,742L201,691Z" fill="#24344e" stroke="#24344e" stroke-width="1.51"/><path d="M158,96L98,137L193,165Z" fill="#171d29" stroke="#171d29" stroke-width="1.51"/><path d="M98,137L108,231L193,165Z" fill="#181e2b" stroke="#181e2b" stroke-width="1.51"/><path d="M38,940L54,1075L165,962Z" fill="#2b4263" stroke="#2b4263" stroke-width="1.51"/><path d="M38,940L165,962L167,889Z" fill="#294061" stroke="#294061" stroke-width="1.51"/><path d="M90,841L38,940L167,889Z" fill="#283e5c" stroke="#283e5c" stroke-width="1.51"/><path d="M42,553L32,627L143,545Z" fill="#212e44" stroke="#212e44" stroke-width="1.51"/><path d="M119,20L98,137L158,96Z" fill="#151a25" stroke="#151a25" stroke-width="1.51"/><path d="M51,319L14,417L138,431Z" fill="#1b2637" stroke="#1b2637" stroke-width="1.51"/><path d="M137,-95L41,-107L143,-3Z" fill="#10131a" stroke="#10131a" stroke-width="1.51"/><path d="M41,-107L119,20L143,-3Z" fill="#12151c" stroke="#12151c" stroke-width="1.51"/><path d="M131,471L42,553L143,545Z" fill="#202d42" stroke="#202d42" stroke-width="1.51"/><path d="M14,417L131,471L138,431Z" fill="#1d293b" stroke="#1d293b" stroke-width="1.51"/><path d="M-27,1159L-152,1222L100,1217Z" fill="#2d496e" stroke="#2d496e" stroke-width="1.51"/><path d="M54,1075L-27,1159L100,1217Z" fill="#2d486e" stroke="#2d486e" stroke-width="1.51"/><path d="M14,417L42,553L131,471Z" fill="#1e2a3d" stroke="#1e2a3d" stroke-width="1.51"/><path d="M41,-107L-73,-63L119,20Z" fill="#0f1218" stroke="#0f1218" stroke-width="1.51"/><path d="M-73,-63L-68,76L119,20Z" fill="#10141a" stroke="#10141a" stroke-width="1.51"/><path d="M-68,76L98,137L119,20Z" fill="#141821" stroke="#141821" stroke-width="1.51"/><path d="M13,859L38,940L90,841Z" fill="#273c59" stroke="#273c59" stroke-width="1.51"/><path d="M71,742L13,782L90,841Z" fill="#253853" stroke="#253853" stroke-width="1.51"/><path d="M98,137L-78,210L108,231Z" fill="#161d28" stroke="#161d28" stroke-width="1.51"/><path d="M-78,210L51,319L108,231Z" fill="#181f2c" stroke="#181f2c" stroke-width="1.51"/><path d="M-68,76L-78,210L98,137Z" fill="#141923" stroke="#141923" stroke-width="1.51"/><path d="M13,782L13,859L90,841Z" fill="#263955" stroke="#263955" stroke-width="1.51"/><path d="M14,417L-78,490L42,553Z" fill="#1d283a" stroke="#1d283a" stroke-width="1.51"/><path d="M38,940L-62,949L54,1075Z" fill="#293f60" stroke="#293f60" stroke-width="1.51"/><path d="M-62,949L-80,1082L54,1075Z" fill="#2a4161" stroke="#2a4161" stroke-width="1.51"/><path d="M32,627L13,782L71,742Z" fill="#23344d" stroke="#23344d" stroke-width="1.51"/><path d="M-79,627L-108,733L13,782Z" fill="#223148" stroke="#223148" stroke-width="1.51"/><path d="M-79,627L13,782L32,627Z" fill="#223148" stroke="#223148" stroke-width="1.51"/><path d="M-52,354L14,417L51,319Z" fill="#1a2332" stroke="#1a2332" stroke-width="1.51"/><path d="M-78,210L-52,354L51,319Z" fill="#181f2d" stroke="#181f2d" stroke-width="1.51"/><path d="M-80,1082L-27,1159L54,1075Z" fill="#2c4567" stroke="#2c4567" stroke-width="1.51"/><path d="M13,859L-62,949L38,940Z" fill="#283c5a" stroke="#283c5a" stroke-width="1.51"/><path d="M-53,-135L-73,-63L41,-107Z" fill="#0b0d13" stroke="#0b0d13" stroke-width="1.51"/><path d="M-79,627L32,627L42,553Z" fill="#202d43" stroke="#202d43" stroke-width="1.51"/><path d="M-78,490L-79,627L42,553Z" fill="#1e2a3e" stroke="#1e2a3e" stroke-width="1.51"/><path d="M-132,835L-62,949L13,859Z" fill="#263854" stroke="#263854" stroke-width="1.51"/><path d="M-132,835L13,859L13,782Z" fill="#253751" stroke="#253751" stroke-width="1.51"/><path d="M-108,733L-132,835L13,782Z" fill="#23334c" stroke="#23334c" stroke-width="1.51"/><path d="M-52,354L-107,466L14,417Z" fill="#1b2433" stroke="#1b2433" stroke-width="1.51"/><path d="M-107,466L-78,490L14,417Z" fill="#1c2536" stroke="#1c2536" stroke-width="1.51"/><path d="M-132,959L-99,1083L-80,1082Z" fill="#293f5f" stroke="#293f5f" stroke-width="1.51"/><path d="M-94,492L-79,627L-78,490Z" fill="#1d283a" stroke="#1d283a" stroke-width="1.51"/><path d="M-73,-63L-163,14L-68,76Z" fill="#0e1117" stroke="#0e1117" stroke-width="1.51"/><path d="M-123,116L-78,210L-68,76Z" fill="#13171f" stroke="#13171f" stroke-width="1.51"/><path d="M-132,959L-80,1082L-62,949Z" fill="#283d5b" stroke="#283d5b" stroke-width="1.51"/><path d="M-78,210L-143,374L-52,354Z" fill="#181f2a" stroke="#181f2a" stroke-width="1.51"/><path d="M-143,374L-107,466L-52,354Z" fill="#1a2230" stroke="#1a2230" stroke-width="1.51"/><path d="M-80,1082L-99,1083L-27,1159Z" fill="#2b4365" stroke="#2b4365" stroke-width="1.51"/><path d="M-99,1083L-152,1222L-27,1159Z" fill="#2c4567" stroke="#2c4567" stroke-width="1.51"/><path d="M-94,492L-189,626L-79,627Z" fill="#1d293c" stroke="#1d293c" stroke-width="1.51"/><path d="M-132,835L-132,959L-62,949Z" fill="#263955" stroke="#263955" stroke-width="1.51"/><path d="M-142,-73L-73,-63L-53,-135Z" fill="#090c11" stroke="#090c11" stroke-width="1.51"/><path d="M-184,180L-143,374L-78,210Z" fill="#151b25" stroke="#151b25" stroke-width="1.51"/><path d="M-142,-73L-163,14L-73,-63Z" fill="#0a0d13" stroke="#0a0d13" stroke-width="1.51"/><path d="M-189,626L-108,733L-79,627Z" fill="#202d42" stroke="#202d42" stroke-width="1.51"/><path d="M-123,116L-184,180L-78,210Z" fill="#131720" stroke="#131720" stroke-width="1.51"/><path d="M-163,14L-123,116L-68,76Z" fill="#10131a" stroke="#10131a" stroke-width="1.51"/><path d="M-107,466L-94,492L-78,490Z" fill="#1c2636" stroke="#1c2636" stroke-width="1.51"/><path d="M-107,466L-189,626L-94,492Z" fill="#1c2738" stroke="#1c2738" stroke-width="1.51"/><path d="M-132,959L-152,1222L-99,1083Z" fill="#294061" stroke="#294061" stroke-width="1.51"/><path d="M-189,626L-132,835L-108,733Z" fill="#212f46" stroke="#212f46" stroke-width="1.51"/><path d="M-143,374L-189,626L-107,466Z" fill="#1b2435" stroke="#1b2435" stroke-width="1.51"/><path d="M-163,14L-184,180L-123,116Z" fill="#11141b" stroke="#11141b" stroke-width="1.51"/><path d="M-189,626L-152,1222L-132,959Z" fill="#263854" stroke="#263854" stroke-width="1.51"/><path d="M-189,626L-132,959L-132,835Z" fill="#23334b" stroke="#23334b" stroke-width="1.51"/><path d="M-184,180L-189,626L-143,374Z" fill="#18202d" stroke="#18202d" stroke-width="1.51"/></svg>